<svg width="5192" height="5231" viewBox="0 0 5192 5231" fill="none" xmlns="http://www.w3.org/2000/svg">
<path fill-rule="evenodd" clip-rule="evenodd" d="M3103.09 4165.54H509.586C564.197 4239.63 622.623 4310.75 684.576 4378.58H3123.5C3113.42 4308.56 3106.56 4237.49 3103.09 4165.54ZM3164.81 4591.63H903.11C991.988 4668.75 1086.12 4739.97 1184.9 4804.68H3228.39C3203.81 4735.17 3182.55 4664.09 3164.81 4591.63ZM3316.37 5017.73H1580.64C1898.21 5154.82 2248.34 5230.77 2616.22 5230.77C2877.78 5230.77 3130.37 5192.38 3368.66 5120.91C3350.38 5087.03 3332.94 5052.63 3316.37 5017.73ZM3750.38 4591.63H4255.24C4114.94 4648.52 3964.11 4684.84 3806.47 4696.86L3806.46 4696.86C3786.43 4662.62 3767.71 4627.53 3750.38 4591.63ZM4621.4 4378.58H3666.94C3645.84 4309.55 3629.58 4238.4 3618.55 4165.54H4841.3C4775.43 4243.77 4701.73 4315.19 4621.4 4378.58ZM4991.29 3952.49C5030.74 3884.66 5065.04 3813.46 5093.64 3739.44H3614.6C3605.98 3804.58 3601.53 3871.05 3601.53 3938.55C3601.53 3943.2 3601.55 3947.85 3601.59 3952.49H4991.29ZM3102.78 3952.49C3106.03 3880.54 3112.67 3809.47 3122.53 3739.44H254.112C288.881 3812.38 326.93 3883.46 368.068 3952.49H3102.78ZM163.959 3526.39H3163.16C3180.66 3453.94 3201.67 3382.86 3226.01 3313.34H95.0976C115.071 3385.66 138.073 3456.72 163.959 3526.39ZM45.8095 3100.29H3313.17C3347.65 3027.02 3385.98 2955.92 3427.89 2887.24H14.9131C22.3373 2959.16 32.6761 3030.22 45.8095 3100.29ZM1.61371 2674.19H3575.39C3633.96 2599.21 3697.18 2528.05 3764.62 2461.14H5.45017C2.47638 2512.22 0.96875 2563.7 0.96875 2615.53C0.96875 2635.13 1.18449 2654.69 1.61371 2674.19ZM26.5782 2248.09H4013.01C4122.94 2166.86 4240.55 2095.41 4364.54 2035.04H65.6192C49.7569 2105.03 36.7016 2176.09 26.5782 2248.09ZM123.527 1821.99H5108.9C4772.9 765.589 3783.93 0.280273 2616.22 0.280273C1448.5 0.280273 459.533 765.589 123.527 1821.99ZM4824.07 2461.14H5001.82C5040.05 2529.06 5073.15 2600.25 5100.61 2674.19H4291C4450.51 2571.26 4630.75 2497.7 4824.07 2461.14ZM4030.14 2887.24C3966.1 2952.72 3907.99 3024.02 3856.68 3100.29H5191.12C5186.49 3027.75 5176.71 2956.62 5162.15 2887.24H4030.14ZM5189.83 3313.34H3737.27C3705.95 3381.75 3679.61 3452.92 3658.72 3526.39H5158.17C5173.63 3457.05 5184.31 3385.92 5189.83 3313.34Z" fill="#0019FF"/>
</svg>
